# xmcd
# 
# Track frame offsets:
#     150
#     19084
#     56585
#     114963
#     153878
#     207315
#     240430
# 
# Disc length: 3486
# 
# Revision: 1
# Processed by: cddbd v1.5.2PL0 Copyright (c) Steve Scherf et al.
# Submitted via: BonkEnc v1.0.15
# 
DISCID=4d0d9c07
DTITLE=Sendelica - Spaceman Bubblegum And Other Weird Tales From the Mercury Mind
DYEAR=2007
DGENRE=Stoner Rock
TTITLE0=Sunfaze
TTITLE1=Spaceman Bubblegum #2
TTITLE2=It's A Neu! Thing
TTITLE3=Siren the Second Coming
TTITLE4=Indrid Cold
TTITLE5=Mr. Floyd Walker
TTITLE6=Dawn of the Dub Revisited
EXTD=
EXTT0=
EXTT1=
EXTT2=
EXTT3=
EXTT4=
EXTT5=
EXTT6=
PLAYORDER=
